{"accessors" : [{"bufferView" : 0, "byteOffset" : 0, "componentType" : 5123, "count" : 1008, "type" : "SCALAR", "max" : [509], "min" : [0]}, {"bufferView" : 1, "byteOffset" : 0, "componentType" : 5126, "count" : 510, "type" : "VEC3", "max" : [0.617507815361023, 0.75, 0.35656076669692993], "min" : [-0.617507815361023, -0.15000921487808228, -0.8316413760185242], "name" : "POSITION"}, {"bufferView" : 1, "byteOffset" : 12, "componentType" : 5126, "count" : 510, "type" : "VEC3", "max" : [1.0000044107437134, 1.0000044107437134, 1.0000044107437134], "min" : [-1.0000044107437134, -1.0000044107437134, -1.0000044107437134], "name" : "NORMAL"}, {"bufferView" : 1, "byteOffset" : 24, "componentType" : 5126, "count" : 510, "type" : "VEC2", "max" : [0.8502106666564941, 0.8380494713783264], "min" : [0.03813624009490013, 0.10073745250701904], "name" : "TEXCOORD_0"}, {"bufferView" : 0, "byteOffset" : 2016, "componentType" : 5123, "count" : 408, "type" : "SCALAR", "max" : [234], "min" : [0]}, {"bufferView" : 2, "byteOffset" : 0, "componentType" : 5126, "count" : 235, "type" : "VEC3", "max" : [8, 0.30000001192092896, 3.346637725830078], "min" : [-5.396152496337891, -0.30018162727355957, -0.4000000059604645], "name" : "POSITION"}, {"bufferView" : 2, "byteOffset" : 12, "componentType" : 5126, "count" : 235, "type" : "VEC3", "max" : [1.0000044107437134, 1.0000044107437134, 1.0000044107437134], "min" : [-1.0000044107437134, -1.0000044107437134, -1.0000044107437134], "name" : "NORMAL"}, {"bufferView" : 2, "byteOffset" : 24, "componentType" : 5126, "count" : 235, "type" : "VEC2", "max" : [8, 3.346630573272705], "min" : [-8, -3.3464102745056152], "name" : "TEXCOORD_0"}, {"bufferView" : 0, "byteOffset" : 2832, "componentType" : 5123, "count" : 6936, "type" : "SCALAR", "max" : [1408], "min" : [0]}, {"bufferView" : 3, "byteOffset" : 0, "componentType" : 5126, "count" : 1409, "type" : "VEC3", "max" : [0.5999701023101807, 1.3877787807814457E-17, 0.5998684167861938], "min" : [-0.5994737148284912, -0.19999274611473083, -0.5998684167861938], "name" : "POSITION"}, {"bufferView" : 3, "byteOffset" : 12, "componentType" : 5126, "count" : 1409, "type" : "VEC3", "max" : [1.0000044107437134, 1.0000044107437134, 0.999805212020874], "min" : [-1.0000044107437134, -1.0000044107437134, -0.9998052716255188], "name" : "NORMAL"}, {"bufferView" : 3, "byteOffset" : 24, "componentType" : 5126, "count" : 1409, "type" : "VEC2", "max" : [1.951087236404419, 1.9507564306259155], "min" : [-1.9494729042053223, -1.950756549835205], "name" : "TEXCOORD_0"}, {"bufferView" : 0, "byteOffset" : 16704, "componentType" : 5123, "count" : 36, "type" : "SCALAR", "max" : [23], "min" : [0]}, {"bufferView" : 4, "byteOffset" : 0, "componentType" : 5126, "count" : 24, "type" : "VEC3", "max" : [0.5, -0, 0.5], "min" : [-0.5, -0.09998168796300888, -0.5], "name" : "POSITION"}, {"bufferView" : 4, "byteOffset" : 12, "componentType" : 5126, "count" : 24, "type" : "VEC3", "max" : [1.0000044107437134, 1.0000044107437134, 1.0000044107437134], "min" : [-1.0000044107437134, -1.0000044107437134, -1.0000044107437134], "name" : "NORMAL"}, {"bufferView" : 4, "byteOffset" : 24, "componentType" : 5126, "count" : 24, "type" : "VEC2", "max" : [0.5, 0.5], "min" : [-0.5, -0.5], "name" : "TEXCOORD_0"}, {"bufferView" : 0, "byteOffset" : 16776, "componentType" : 5123, "count" : 396, "type" : "SCALAR", "max" : [149], "min" : [0]}, {"bufferView" : 5, "byteOffset" : 0, "componentType" : 5126, "count" : 150, "type" : "VEC3", "max" : [0.8999999761581421, 0.15000000596046448, 0.1498803198337555], "min" : [0, -0.15000000596046448, -0.1498999297618866], "name" : "POSITION"}, {"bufferView" : 5, "byteOffset" : 12, "componentType" : 5126, "count" : 150, "type" : "VEC3", "max" : [1.1286423386991373E-06, 1.0000044107437134, 0.9993383288383484], "min" : [-1.0000044107437134, -1.0000044107437134, -0.9993386268615723], "name" : "NORMAL"}, {"bufferView" : 5, "byteOffset" : 24, "componentType" : 5126, "count" : 150, "type" : "VEC2", "max" : [1.0522669553756714, 0.7507497072219849], "min" : [0.10508517920970917, 0.10518574714660645], "name" : "TEXCOORD_0"}, {"bufferView" : 0, "byteOffset" : 17568, "componentType" : 5123, "count" : 132, "type" : "SCALAR", "max" : [83], "min" : [0]}, {"bufferView" : 6, "byteOffset" : 0, "componentType" : 5126, "count" : 84, "type" : "VEC3", "max" : [0.8999999761581421, 0.15000000596046448, 0.14989864826202393], "min" : [0.8999999761581421, -0.15000000596046448, -0.1498999297618866], "name" : "POSITION"}, {"bufferView" : 6, "byteOffset" : 12, "componentType" : 5126, "count" : 84, "type" : "VEC3", "max" : [1.0000044107437134, 4.549844561552163E-06, 0], "min" : [1.0000042915344238, -9.097611837205477E-06, 0], "name" : "NORMAL"}, {"bufferView" : 6, "byteOffset" : 24, "componentType" : 5126, "count" : 84, "type" : "VEC2", "max" : [1.5, 1.4988030195236206], "min" : [-1.5, -1.4989991188049316], "name" : "TEXCOORD_0"}], "asset" : {"generator" : "Aspose.3D 24.9.0", "version" : "2.0"}, "buffers" : [{"uri" : "data:application/octet-stream;base64,", "byteLength" : 95044}], "bufferViews" : [{"buffer" : 0, "byteOffset" : 0, "byteLength" : 17832, "target" : 34963}, {"buffer" : 0, "byteOffset" : 17836, "byteLength" : 16320, "byteStride" : 32, "target" : 34962}, {"buffer" : 0, "byteOffset" : 34160, "byteLength" : 7520, "byteStride" : 32, "target" : 34962}, {"buffer" : 0, "byteOffset" : 41684, "byteLength" : 45088, "byteStride" : 32, "target" : 34962}, {"buffer" : 0, "byteOffset" : 86776, "byteLength" : 768, "byteStride" : 32, "target" : 34962}, {"buffer" : 0, "byteOffset" : 87548, "byteLength" : 4800, "byteStride" : 32, "target" : 34962}, {"buffer" : 0, "byteOffset" : 92352, "byteLength" : 2688, "byteStride" : 32, "target" : 34962}], "cameras" : [{"perspective" : {"aspectRatio" : 1.5, "yfov" : 0.6911112070083618, "zfar" : 10000, "znear" : 10.000000149011612}, "type" : "perspective", "name" : "Camera"}, {"perspective" : {"aspectRatio" : 1.5, "yfov" : 0.6911112070083618, "zfar" : 10000, "znear" : 0.9999999776482582}, "type" : "perspective", "name" : "Camera.001"}], "materials" : [{"name" : "Material_0", "pbrMetallicRoughness" : {"baseColorFactor" : [0.49803900718688965, 0.49803900718688965, 0.49803900718688965, 1], "metallicFactor" : 1, "roughnessFactor" : 1}, "emissiveFactor" : [1, 1, 1], "alphaMode" : "OPAQUE", "doubleSided" : false}, {"name" : "color", "pbrMetallicRoughness" : {"baseColorFactor" : [0.6235290169715881, 0.7882350087165833, 1, 1], "metallicFactor" : 1, "roughnessFactor" : 1}, "emissiveFactor" : [1, 1, 1], "alphaMode" : "OPAQUE", "doubleSided" : false}, {"name" : "polished steel", "pbrMetallicRoughness" : {"baseColorFactor" : [1, 0.992156982421875, 0.8745099902153015, 1], "metallicFactor" : 1, "roughnessFactor" : 1}, "emissiveFactor" : [1, 1, 1], "alphaMode" : "OPAQUE", "doubleSided" : false}, {"name" : "whitesolid", "pbrMetallicRoughness" : {"baseColorFactor" : [0.7529410123825073, 0.7529410123825073, 1, 1], "metallicFactor" : 1, "roughnessFactor" : 1}, "emissiveFactor" : [1, 1, 1], "alphaMode" : "OPAQUE", "doubleSided" : false}, {"name" : "chromium plate", "pbrMetallicRoughness" : {"baseColorFactor" : [0.6392160058021545, 0.6666669845581055, 0.67843097448349, 1], "metallicFactor" : 1, "roughnessFactor" : 1}, "emissiveFactor" : [1, 1, 1], "alphaMode" : "OPAQUE", "doubleSided" : false}], "meshes" : [{"primitives" : [{"attributes" : {"POSITION" : 1, "NORMAL" : 2, "TEXCOORD_0" : 3}, "indices" : 0, "material" : 0, "mode" : 4}], "name" : "Mesh_0"}, {"primitives" : [{"attributes" : {"POSITION" : 5, "NORMAL" : 6, "TEXCOORD_0" : 7}, "indices" : 4, "material" : 1, "mode" : 4}], "name" : "Mesh_1"}, {"primitives" : [{"attributes" : {"POSITION" : 9, "NORMAL" : 10, "TEXCOORD_0" : 11}, "indices" : 8, "material" : 2, "mode" : 4}], "name" : "Mesh_2"}, {"primitives" : [{"attributes" : {"POSITION" : 13, "NORMAL" : 14, "TEXCOORD_0" : 15}, "indices" : 12, "material" : 3, "mode" : 4}], "name" : "Mesh_3"}, {"primitives" : [{"attributes" : {"POSITION" : 17, "NORMAL" : 18, "TEXCOORD_0" : 19}, "indices" : 16, "material" : 0, "mode" : 4}, {"attributes" : {"POSITION" : 21, "NORMAL" : 22, "TEXCOORD_0" : 23}, "indices" : 20, "material" : 4, "mode" : 4}], "name" : "Mesh_4"}], "nodes" : [{"camera" : 0, "matrix" : [-65.15581275167911, -44.527139154551755, -61.417049289096546, 0, -32.401349332924404, 89.5395728270982, -30.542085476036892, 0, 68.59207001076241, 8.666908834403258E-06, -72.76761921184276, 0, 735.88916015625, 495.8309326171875, 692.5791015625, 1], "name" : "Camera"}, {"camera" : 1, "matrix" : [-50.21389360309121, -22.23712329935933, -83.57081631827633, 0, -6.175209108924171, 97.31271730812932, -22.183265425382523, 0, 86.25798522516772, -5.97841091728656, -50.23771235908686, 0, 7237.8798828125, 3398.889892578125, 12386.2998046875, 1], "name" : "current"}, {"matrix" : [1, 0, 0, 0, 0, 1, 0, 0, 0, 0, 1, 0, 9.247389793395996, -3.842400074005127, 0.8307480216026306, 1], "mesh" : 0, "name" : "Pin Support Base-1"}, {"matrix" : [1, 0, 0, 0, 0, 1, 0, 0, 0, 0, 1, 0, 1.7584999799728394, -3.5423998832702637, 0.9372850060462952, 1], "mesh" : 1, "name" : "Beam-1"}, {"matrix" : [1, 0, 0, 0, 0, 1, 0, 0, 0, 0, 1, 0, -3.612649917602539, -3.4423999786376953, 3.6341800689697266, 1], "mesh" : 2, "name" : "roller-1"}, {"matrix" : [0.8660249159559863, -2.1816816262243333E-08, -0.5000000104785736, 0, -0.5000000104785708, -1.5032465947574998E-07, -0.8660249159559751, 0, -5.626847179718878E-08, 0.9999999999999883, -1.410934266858349E-07, 0, -3.9626500606536865, -3.5423998832702637, 3.0279600620269775, 1], "mesh" : 3, "name" : "Platform'-1"}, {"matrix" : [-1.6292069897430142E-07, -1.0000001192092762, 0, 0, 1.0000001192092762, -1.6292069897430142E-07, 0, 0, 0, 0, 1, 0, 9.247389793395996, -3.092400074005127, 0.9372850060462952, 1], "mesh" : 4, "name" : "Pin-1"}, {"children" : [2, 3, 4, 5, 6], "matrix" : [100, 0, 0, 0, 0, -1.6292067955264296E-05, -99.99999999999866, 0, 0, 99.99999999999866, -1.6292067955264296E-05, 0, 0, 0, 0, 1], "name" : "HW1"}], "scene" : 0, "scenes" : [{"nodes" : [0, 1, 7]}]}